<?xml version="1.0" encoding="utf-8"?>
<!-- Generator: Adobe Illustrator 17.0.0, SVG Export Plug-In . SVG Version: 6.00 Build 0)  -->
<!DOCTYPE svg PUBLIC "-//W3C//DTD SVG 1.1//EN" "http://www.w3.org/Graphics/SVG/1.1/DTD/svg11.dtd">
<svg version="1.1" id="Warstwa_1" xmlns="http://www.w3.org/2000/svg" xmlns:xlink="http://www.w3.org/1999/xlink" x="0px" y="0px"
	 width="850.39px" height="850.39px" viewBox="0 0 850.39 850.39" enable-background="new 0 0 850.39 850.39" xml:space="preserve">
<g>
	<g>
		<defs>
			<path id="SVGID_21_" d="M267.749,590.379c-87.862-79.839-87.862-186.441,0-266.28c14.836-12.057,31.653-22.461,49.909-30.862
				c-9.804,16.036-14.178,24.805-21.518,43.406c-13.568,3.593-20.124,5.61-32.66,10.02c-13.4,24.169-22.051,50.018-26.016,76.32
				c11.276-0.974,17.079-1.429,28.964-2.267c-1.62,18.645-2.121,36.718-1.573,55.405c-12.01-0.429-17.876-0.662-29.276-1.161
				c4.163,33.049,12.743,62.406,28.093,93.2c12.655,4.473,19.276,6.517,32.985,10.152c7.279,18.446,11.609,27.146,21.303,43.066
				C299.588,612.954,282.666,602.503,267.749,590.379z"/>
		</defs>
		<clipPath id="SVGID_17_">
			<use xlink:href="#SVGID_21_"  overflow="visible"/>
		</clipPath>
		
			<radialGradient id="SVGID_18_" cx="425.8039" cy="500.7551" r="264.1226" gradientTransform="matrix(1 0 0 0.9125 0 22.357)" gradientUnits="userSpaceOnUse">
			<stop  offset="0" style="stop-color:#E46C40"/>
			<stop  offset="1" style="stop-color:#E21F26"/>
		</radialGradient>
		<ellipse clip-path="url(#SVGID_17_)" fill="url(#SVGID_18_)" cx="425.804" cy="479.296" rx="278.183" ry="227.459"/>
	</g>
	<g>
		<defs>
			<path id="SVGID_24_" d="M330.438,626.696c-51.188-108.588-51.188-230.325,0-338.914c11.225-4.433,17.059-6.361,29.067-9.551
				c-31.346,101.824-33.472,207.106-12.981,310.508c14.859,2.325,22.494,3.249,38.061,4.555c1.879,16.523,4.195,33.015,7.026,49.449
				C370.418,639.748,349.786,634.336,330.438,626.696z"/>
		</defs>
		<clipPath id="SVGID_19_">
			<use xlink:href="#SVGID_24_"  overflow="visible"/>
		</clipPath>
		
			<radialGradient id="SVGID_20_" cx="425.8039" cy="500.7551" r="264.1226" gradientTransform="matrix(1 0 0 0.9125 0 22.357)" gradientUnits="userSpaceOnUse">
			<stop  offset="0" style="stop-color:#E46C40"/>
			<stop  offset="1" style="stop-color:#E21F26"/>
		</radialGradient>
		<ellipse clip-path="url(#SVGID_19_)" fill="url(#SVGID_20_)" cx="425.804" cy="479.296" rx="278.183" ry="227.459"/>
	</g>
	<g>
		<defs>
			<path id="SVGID_27_" d="M522.921,630.299c50.084-102.103,49.595-234.943,11.226-342.045c12.28,5.736,30.735,14.601,41.742,21.743
				c73.356,83.058,109.343,196.012,19.404,280.383c-8.046,6.541-12.322,9.618-21.3,15.32c14.298-16.61,24.846-35.232,31.937-54.641
				c-8.6,2.316-13.016,3.409-22.049,5.449c-9.963,21.699-20.744,42.742-34.74,62.968
				C539.046,624.323,533.784,626.502,522.921,630.299z M598.835,512.56c7.045-0.815,10.514-1.243,17.333-2.136
				c5.114-45.862-15.609-107.006-30.439-151.398C595.04,404.839,602.003,463.845,598.835,512.56z"/>
		</defs>
		<clipPath id="SVGID_22_">
			<use xlink:href="#SVGID_27_"  overflow="visible"/>
		</clipPath>
		
			<radialGradient id="SVGID_23_" cx="425.8039" cy="500.7551" r="264.1226" gradientTransform="matrix(1 0 0 0.9125 0 22.357)" gradientUnits="userSpaceOnUse">
			<stop  offset="0" style="stop-color:#E46C40"/>
			<stop  offset="1" style="stop-color:#E21F26"/>
		</radialGradient>
		<ellipse clip-path="url(#SVGID_22_)" fill="url(#SVGID_23_)" cx="425.804" cy="479.296" rx="278.183" ry="227.459"/>
	</g>
	<g>
		<defs>
			<path id="SVGID_30_" d="M405.026,644.309c-12.921-124.24-10.231-250.2,2.533-374.362c13.908-1.162,21.221-1.327,35.337-0.772
				c10.135,73.856,19.89,147.657,25.805,221.831c7.951-72.445,14.788-145.865,7.501-218.553c13.02,2.069,19.378,3.482,31.678,6.972
				c38.961,115.267,41,239.46,2.323,354.96c-8.403,2.467-12.703,3.544-21.46,5.353c19.805-81.757,21.071-165.802,14.97-248.702
				c-2.12,84.913-14.43,168.585-34.054,251.952c-8.031,1.082-12.106,1.485-20.354,1.994
				c-1.123-85.993-10.801-171.938-18.634-257.648c-1.012,86.056-2.14,172.119-2.028,258.181
				C419.071,645.418,414.34,645.171,405.026,644.309z"/>
		</defs>
		<clipPath id="SVGID_25_">
			<use xlink:href="#SVGID_30_"  overflow="visible"/>
		</clipPath>
		
			<radialGradient id="SVGID_26_" cx="425.8039" cy="500.7551" r="264.1226" gradientTransform="matrix(1 0 0 0.9125 0 22.357)" gradientUnits="userSpaceOnUse">
			<stop  offset="0" style="stop-color:#E46C40"/>
			<stop  offset="1" style="stop-color:#E21F26"/>
		</radialGradient>
		<ellipse clip-path="url(#SVGID_25_)" fill="url(#SVGID_26_)" cx="425.804" cy="479.296" rx="278.183" ry="227.459"/>
	</g>
	<g>
		<path fill="#089C49" d="M577.856,270.296c-6.308,3.576-12.56,6.334-20.972,8.679c-11.355,3.161-24.433,4.603-37.123,5.733
			c-14.499,1.292-34.775,2.558-52.161,0.834c-4.039,0.194-8.451-0.264-12.329-1.055c0.278,1.063,0.626,2.133,0.887,3.207
			c8.082,10.362,23.067,19.527,41.779,25.636c-15.616-1.926-31.171-6.241-43.652-10.304c-13.473-4.385-25.698-10.77-32.762-18.193
			c0.052-0.026,0.109-0.048,0.161-0.073c-0.331-0.242-0.652-0.491-0.978-0.735c-2.417,0.882-5.026,1.621-7.89,2.111
			c-18.685,5.865-38.518,9.809-60.808,11.851c-13.907,1.275-27.715,1.275-41.688,0.372c-7.095-0.458-13.868-1.569-20.58-2.747
			c-3.661-0.642-11.251-1.508-15.46-2.997c8.125-0.86,18.412-0.573,25.828-1.052c13.029-0.838,25.793-2.444,38.244-4.49
			c16.551-2.719,31.219-6.844,46.065-10.958c1.917-0.899,3.808-1.811,5.734-2.706c-0.778,0.21-1.556,0.426-2.33,0.64
			c0.026-0.121-0.035-0.225-0.283-0.283c-5.521-1.295-12.038-1.774-17.894-2.684c-7.321-1.139-13.777-3.268-20.685-4.851
			c-10.864-4.35-18.811-10.58-23.428-17.634c-4.861-7.432-3.526-15.866-0.413-23.395c1.518-3.674,3.861-7.347,6.391-10.87
			c0.652-1.184,2.117-2.031,4.404-2.539c-0.513,1.504-1.161,2.997-1.634,4.51c-6.313,20.004,22.606,41.895,63.281,43.756
			c-0.091,0.03-0.178,0.056-0.278,0.1l-0.126,0.058c0.487-0.015,0.978-0.028,1.474-0.035c-0.004-0.022,0.022-0.052,0.009-0.071
			c0.765,0.028,1.543,0.03,2.322,0.043c3.826-0.024,7.656-0.054,11.056-1.018c1.082-0.309,2.052-0.665,2.948-1.052
			c3.729-2.006,4.056-2.114,2.813-8.748c-0.835-4.473-1.283-8.972-1.465-13.461c-0.156-3.775,0.513-7.388,1.578-11.023
			c0.1-1.835,0.33-3.674,0.783-5.517c1.752-3.965,5.365-7.937,10.103-10.831c7.925-4.838,19.307-3.879,29.567-2.537
			c19.385,2.543-0.143,6.82-6.365,10.163c-8.442,4.534-13.742,9.727-17.751,15.559c-0.217,0.313-0.43,0.655-0.639,0.998
			c-0.322,0.175-0.574,0.348-0.626,0.441c-0.913,1.662-1.635,3.371-2.183,5.102c-0.539,12.056,14.573,25.845,11.799,22.068
			c1.022,0.229,2.061,0.428,3.1,0.588c4.861,0.746,9.899,0.964,14.899,1.331c0.383,0.006,0.752,0.009,1.13,0.019
			c16.929,0.026,33.531-3.46,47.465-8.704c13.203-4.968,24.828-12.957,23.389-21.217c4.799,2.669,7.104,7.131,8.021,10.101
			c1.756,5.672-3.717,11.944-10.447,16.326c-9.108,5.934-23.789,10.314-38.84,11.983c-1.487,0.335-3,0.653-4.556,0.94
			c-2.713,0.499-5.417,1.279-8.203,1.882c13.664,2.494,28.41,3.425,43.139,2.893c19.063-0.687,41.366-0.839,57.377-6.708
			C578.538,269.957,578.095,270.16,577.856,270.296z"/>
		<path fill="#089C49" d="M419.631,278.549c-5.799-2.407-15.077,2.219-19.572,3.816c-14.251,5.074-33.54,8.091-50.347,10.234
			c-16.716,2.133-33.875,3.177-51.139,2.811c-6.947-0.147-15.92-0.536-20.998-3.077c-1.126,0.076-2.23,0.168-3.296,0.281
			c4.208,1.489,11.799,2.356,15.46,2.997c6.712,1.178,13.486,2.289,20.58,2.747c13.973,0.903,27.78,0.903,41.688-0.372
			c22.289-2.042,42.122-5.986,60.808-11.851c1.9-0.324,3.678-0.767,5.373-1.282C420.792,282.746,422.87,279.893,419.631,278.549z"/>
		<path fill="#089C49" d="M460.575,262.216c-5-0.367-10.038-0.586-14.899-1.331c-1.039-0.16-2.078-0.359-3.1-0.588
			c0.326,0.45,0.691,0.891,1.035,1.335c10.286,10.66,34.823,18.529,57.821,19.555c15.66,0.7,31.941-0.772,46.187-4.093
			c3.643-0.849,7.178-1.791,10.669-2.772c-11.951,1.47-24.893,1.694-36.614,2.118c-14.729,0.532-29.476-0.4-43.139-2.893
			c2.786-0.603,5.491-1.383,8.203-1.882c1.556-0.287,3.069-0.605,4.556-0.94c15.05-1.668,29.732-6.049,38.84-11.983
			c6.73-4.383,12.203-10.654,10.447-16.326c-0.917-2.969-3.222-7.432-8.021-10.101c1.439,8.259-10.186,16.249-23.389,21.217
			c-13.934,5.245-30.536,8.73-47.465,8.704C461.327,262.225,460.958,262.223,460.575,262.216z"/>
		<path fill="#089C49" d="M447.098,205.272c2.487,1.865,2.391,4.155-0.778,5.839c-6.125,3.248-12.768,5.765-16.616,9.977
			c-13.69,14.984-9.217,33.376,14.498,45.018c-10.225-8.173-13.864-18.055-13.425-27.877c0.548-1.731,1.27-3.44,2.183-5.102
			c0.052-0.093,0.304-0.266,0.626-0.441c0.209-0.344,0.422-0.685,0.639-0.998c4.008-5.832,9.308-11.025,17.751-15.559
			c6.221-3.343,25.75-7.62,6.365-10.163c-3.864-0.503-7.886-0.955-11.825-1.063C446.711,205.025,446.92,205.142,447.098,205.272z"/>
		<path fill="#089C49" d="M446.881,286.912c2.256,4.445,6.378,8.635,11.986,12.279c8.916,5.787,20.624,10.215,33.684,13.377
			c1.796,0.279,3.587,0.54,5.387,0.763c-18.712-6.109-33.697-15.274-41.779-25.636c-0.074-0.307-0.165-0.609-0.252-0.912
			c-2.757-3.021-4.156-6.388-5.813-9.846C443.903,278.614,445.459,284.12,446.881,286.912z"/>
		<path fill="#089C49" d="M348.959,266.229c6.908,1.584,13.364,3.712,20.685,4.851c5.856,0.91,12.373,1.389,17.894,2.684
			c0.005,0,0.005,0.002,0.009,0.004c1.495-0.22,2.952-0.497,4.352-0.871c-25.024-3.866-45.17-13.98-54.103-26.168
			c-7.595-10.358-11.938-23.153-4.604-33.967c-0.778,0.432-1.343,0.951-1.682,1.567c-2.53,3.522-4.873,7.196-6.391,10.87
			c-3.113,7.529-4.447,15.963,0.413,23.395C330.148,255.649,338.095,261.879,348.959,266.229z"/>
	</g>
</g>
</svg>
